HIERARCHY
ROOT Hips
{
	OFFSET 0.000000 83.214638 0.000000
	CHANNELS 6 Xposition Yposition Zposition Xrotation Yrotation Zrotation
	JOINT Pelvis
	{
		OFFSET 0.000000 0.000000 0.000000
		CHANNELS 3 Xrotation Yrotation Zrotation
		JOINT LeftUpLeg
		{
			OFFSET 8.479700 -4.795502 -0.379100
			CHANNELS 3 Xrotation Yrotation Zrotation
			JOINT LeftLeg
			{
				OFFSET 0.024144 -32.555107 0.112900
				CHANNELS 3 Xrotation Yrotation Zrotation
				JOINT LeftFoot
				{
					OFFSET -0.024144 -32.638630 -3.012600
					CHANNELS 3 Xrotation Yrotation Zrotation
					JOINT LeftToeBase
					{
						OFFSET 0.970200 -13.225400 11.864200
						CHANNELS 3 Xrotation Yrotation Zrotation
						End Site
						{
							OFFSET 0.000000 12.319262 0.000000
						}
					}
					JOINT LFootTongue
					{
						OFFSET 1.142400 -1.059800 6.665200
						CHANNELS 3 Xrotation Yrotation Zrotation
						End Site
						{
							OFFSET 0.000000 12.319262 0.000000
						}
					}
				}
				JOINT LeftPantLeg
				{
					OFFSET 0.918482 -16.533964 -2.284700
					CHANNELS 3 Xrotation Yrotation Zrotation
					End Site
					{
						OFFSET 0.350399 24.744368 0.000000
					}
				}
			}
		}
		JOINT RightUpLeg
		{
			OFFSET -8.479700 -4.795502 -0.379100
			CHANNELS 3 Xrotation Yrotation Zrotation
			JOINT RightLeg
			{
				OFFSET -0.023144 -32.555092 0.112900
				CHANNELS 3 Xrotation Yrotation Zrotation
				JOINT RightFoot
				{
					OFFSET 0.023144 -32.638641 -3.012700
					CHANNELS 3 Xrotation Yrotation Zrotation
					JOINT RightToeBase
					{
						OFFSET -0.970200 -13.225400 11.864200
						CHANNELS 3 Xrotation Yrotation Zrotation
						End Site
						{
							OFFSET 0.000000 12.319244 0.000000
						}
					}
					JOINT RFootTongue
					{
						OFFSET -1.142200 -1.059800 6.665200
						CHANNELS 3 Xrotation Yrotation Zrotation
						End Site
						{
							OFFSET 0.000000 12.319243 0.000000
						}
					}
				}
				JOINT RightPantLeg
				{
					OFFSET -0.919482 -16.533978 -2.284800
					CHANNELS 3 Xrotation Yrotation Zrotation
					End Site
					{
						OFFSET -0.350400 24.744419 0.000000
					}
				}
			}
		}
	}
	JOINT Spine
	{
		OFFSET 0.000000 7.722000 1.166200
		CHANNELS 3 Xrotation Yrotation Zrotation
		JOINT Spine1
		{
			OFFSET 0.000000 12.024101 0.248800
			CHANNELS 3 Xrotation Yrotation Zrotation
			JOINT Spine2
			{
				OFFSET 0.000000 11.502998 -0.491200
				CHANNELS 3 Xrotation Yrotation Zrotation
				JOINT Neck
				{
					OFFSET 0.000000 18.430702 -3.123100
					CHANNELS 3 Xrotation Yrotation Zrotation
					JOINT Head
					{
						OFFSET 0.000000 9.051102 1.034000
						CHANNELS 3 Xrotation Yrotation Zrotation
						JOINT HairB
						{
							OFFSET 0.208400 24.786102 24.822300
							CHANNELS 3 Xrotation Yrotation Zrotation
							End Site
							{
								OFFSET 0.000000 32.263779 0.000000
							}
						}
						JOINT HairA
						{
							OFFSET -7.081100 24.428299 23.196600
							CHANNELS 3 Xrotation Yrotation Zrotation
							End Site
							{
								OFFSET 0.000000 32.263779 0.000000
							}
						}
						JOINT Hat
						{
							OFFSET 16.728800 15.048294 -15.439601
							CHANNELS 3 Xrotation Yrotation Zrotation
							End Site
							{
								OFFSET 0.000000 32.263779 0.000000
							}
						}
					}
				}
				JOINT LeftShoulder
				{
					OFFSET 6.197800 13.665199 -4.064700
					CHANNELS 3 Xrotation Yrotation Zrotation
					JOINT LeftArm
					{
						OFFSET 7.778100 -0.187103 -1.709300
						CHANNELS 3 Xrotation Yrotation Zrotation
						JOINT LeftForeArm
						{
							OFFSET 22.049376 0.000000 0.000000
							CHANNELS 3 Xrotation Yrotation Zrotation
							JOINT LeftHand
							{
								OFFSET 23.009392 0.000000 0.000000
								CHANNELS 3 Xrotation Yrotation Zrotation
								JOINT LeftHandThumb1
								{
									OFFSET 3.507191 -2.063065 3.133727
									CHANNELS 3 Xrotation Yrotation Zrotation
									JOINT LeftHandThumb2
									{
										OFFSET 3.101337 -1.790558 1.790558
										CHANNELS 3 Xrotation Yrotation Zrotation
										JOINT LeftHandThumb3
										{
											OFFSET 3.058640 -1.765907 1.765906
											CHANNELS 3 Xrotation Yrotation Zrotation
											End Site
											{
												OFFSET -0.415260 3.926476 -0.049563
											}
										}
									}
								}
								JOINT LeftHandIndex1
								{
									OFFSET 11.334419 -0.901459 3.706815
									CHANNELS 3 Xrotation Yrotation Zrotation
									JOINT LeftHandIndex2
									{
										OFFSET 3.283112 0.000000 0.000000
										CHANNELS 3 Xrotation Yrotation Zrotation
										JOINT LeftHandIndex3
										{
											OFFSET 3.323853 0.000000 0.000000
											CHANNELS 3 Xrotation Yrotation Zrotation
											End Site
											{
												OFFSET -1.135597 3.097809 0.402452
											}
										}
									}
								}
								JOINT LeftHandMiddle1
								{
									OFFSET 11.335861 0.000000 0.000000
									CHANNELS 3 Xrotation Yrotation Zrotation
									JOINT LeftHandMiddle2
									{
										OFFSET 3.410492 0.000000 0.000000
										CHANNELS 3 Xrotation Yrotation Zrotation
										JOINT LeftHandMiddle3
										{
											OFFSET 3.312172 0.000000 0.000000
											CHANNELS 3 Xrotation Yrotation Zrotation
											End Site
											{
												OFFSET -1.150200 3.080154 0.400270
											}
										}
									}
								}
								JOINT LeftHandRing1
								{
									OFFSET 11.514786 -0.013176 -3.003090
									CHANNELS 3 Xrotation Yrotation Zrotation
									JOINT LeftHandRing2
									{
										OFFSET 3.053307 0.000000 0.000000
										CHANNELS 3 Xrotation Yrotation Zrotation
										JOINT LeftHandRing3
										{
											OFFSET 3.295807 0.000000 0.000000
											CHANNELS 3 Xrotation Yrotation Zrotation
											End Site
											{
												OFFSET -1.281006 3.013344 0.375733
											}
										}
									}
								}
								JOINT LeftHandPinky1
								{
									OFFSET 10.518692 -0.960396 -5.730441
									CHANNELS 3 Xrotation Yrotation Zrotation
									JOINT LeftHandPinky2
									{
										OFFSET 2.861649 0.000000 0.000000
										CHANNELS 3 Xrotation Yrotation Zrotation
										JOINT LeftHandPinky3
										{
											OFFSET 2.863380 0.000000 0.000000
											CHANNELS 3 Xrotation Yrotation Zrotation
											End Site
											{
												OFFSET -0.843597 2.711159 0.369971
											}
										}
									}
								}
							}
							JOINT LSleeve
							{
								OFFSET 6.676277 -0.344902 -1.011730
								CHANNELS 3 Xrotation Yrotation Zrotation
								End Site
								{
									OFFSET 0.000000 14.885353 0.000000
								}
							}
						}
					}
				}
				JOINT RightShoulder
				{
					OFFSET -6.197800 13.665199 -4.064700
					CHANNELS 3 Xrotation Yrotation Zrotation
					JOINT RightArm
					{
						OFFSET -7.778100 -0.187103 -1.709300
						CHANNELS 3 Xrotation Yrotation Zrotation
						JOINT RightForeArm
						{
							OFFSET -22.049376 0.000000 0.000000
							CHANNELS 3 Xrotation Yrotation Zrotation
							JOINT RightHand
							{
								OFFSET -23.009392 0.000000 0.000000
								CHANNELS 3 Xrotation Yrotation Zrotation
								JOINT RightHandThumb1
								{
									OFFSET -3.507191 -2.063065 3.133727
									CHANNELS 3 Xrotation Yrotation Zrotation
									JOINT RightHandThumb2
									{
										OFFSET -3.101337 -1.790558 1.790558
										CHANNELS 3 Xrotation Yrotation Zrotation
										JOINT RightHandThumb3
										{
											OFFSET -3.058640 -1.765907 1.765906
											CHANNELS 3 Xrotation Yrotation Zrotation
											End Site
											{
												OFFSET 0.415260 3.926476 -0.049563
											}
										}
									}
								}
								JOINT RightHandIndex1
								{
									OFFSET -11.334419 -0.901459 3.706815
									CHANNELS 3 Xrotation Yrotation Zrotation
									JOINT RightHandIndex2
									{
										OFFSET -3.283112 0.000000 0.000000
										CHANNELS 3 Xrotation Yrotation Zrotation
										JOINT RightHandIndex3
										{
											OFFSET -3.323853 0.000000 0.000000
											CHANNELS 3 Xrotation Yrotation Zrotation
											End Site
											{
												OFFSET 1.135597 3.097809 0.402452
											}
										}
									}
								}
								JOINT RightHandMiddle1
								{
									OFFSET -11.335861 0.000000 0.000000
									CHANNELS 3 Xrotation Yrotation Zrotation
									JOINT RightHandMiddle2
									{
										OFFSET -3.410492 0.000000 0.000000
										CHANNELS 3 Xrotation Yrotation Zrotation
										JOINT RightHandMiddle3
										{
											OFFSET -3.312172 0.000000 0.000000
											CHANNELS 3 Xrotation Yrotation Zrotation
											End Site
											{
												OFFSET 1.150200 3.080154 0.400270
											}
										}
									}
								}
								JOINT RightHandRing1
								{
									OFFSET -11.514786 -0.013176 -3.003090
									CHANNELS 3 Xrotation Yrotation Zrotation
									JOINT RightHandRing2
									{
										OFFSET -3.053307 0.000000 0.000000
										CHANNELS 3 Xrotation Yrotation Zrotation
										JOINT RightHandRing3
										{
											OFFSET -3.295807 0.000000 0.000000
											CHANNELS 3 Xrotation Yrotation Zrotation
											End Site
											{
												OFFSET 1.281006 3.013344 0.375733
											}
										}
									}
								}
								JOINT RightHandPinky1
								{
									OFFSET -10.518692 -0.960396 -5.730441
									CHANNELS 3 Xrotation Yrotation Zrotation
									JOINT RightHandPinky2
									{
										OFFSET -2.861649 0.000000 0.000000
										CHANNELS 3 Xrotation Yrotation Zrotation
										JOINT RightHandPinky3
										{
											OFFSET -2.863380 0.000000 0.000000
											CHANNELS 3 Xrotation Yrotation Zrotation
											End Site
											{
												OFFSET 0.843597 2.711159 0.369971
											}
										}
									}
								}
							}
							JOINT RSleeve
							{
								OFFSET -6.676277 -0.344902 -1.011730
								CHANNELS 3 Xrotation Yrotation Zrotation
								End Site
								{
									OFFSET 0.000000 14.885353 0.000000
								}
							}
						}
					}
				}
				JOINT Backpack
				{
					OFFSET 0.000000 -2.471497 36.677502
					CHANNELS 3 Xrotation Yrotation Zrotation
					End Site
					{
						OFFSET 0.000000 20.427315 0.000000
					}
				}
				JOINT Hood
				{
					OFFSET 0.000000 18.754097 -10.431000
					CHANNELS 3 Xrotation Yrotation Zrotation
					JOINT Hood1
					{
						OFFSET 0.000000 -5.011002 -7.685901
						CHANNELS 3 Xrotation Yrotation Zrotation
						End Site
						{
							OFFSET 0.000000 9.175140 0.000000
						}
					}
				}
				JOINT LHoodieString
				{
					OFFSET 5.250500 16.397697 3.089900
					CHANNELS 3 Xrotation Yrotation Zrotation
					JOINT LHoodieString1
					{
						OFFSET 0.257700 -6.364304 3.694600
						CHANNELS 3 Xrotation Yrotation Zrotation
						JOINT LHoodieString2
						{
							OFFSET 0.000000 -9.643799 2.679100
							CHANNELS 3 Xrotation Yrotation Zrotation
							End Site
							{
								OFFSET 0.000000 10.009018 0.000000
							}
						}
					}
				}
				JOINT RHoodieString
				{
					OFFSET -5.250500 16.397697 3.089900
					CHANNELS 3 Xrotation Yrotation Zrotation
					JOINT RHoodieString1
					{
						OFFSET -0.257700 -6.364304 3.694600
						CHANNELS 3 Xrotation Yrotation Zrotation
						JOINT RHoodieString2
						{
							OFFSET 0.000000 -9.643799 2.679100
							CHANNELS 3 Xrotation Yrotation Zrotation
							End Site
							{
								OFFSET 0.000000 10.009018 0.000000
							}
						}
					}
				}
			}
			JOINT LBackpack_Strap
			{
				OFFSET 15.223200 -7.719803 -6.610900
				CHANNELS 3 Xrotation Yrotation Zrotation
				End Site
				{
					OFFSET 0.000000 16.040596 0.000000
				}
			}
			JOINT RBackpack_Strap
			{
				OFFSET -15.223000 -7.719803 -6.610900
				CHANNELS 3 Xrotation Yrotation Zrotation
				End Site
				{
					OFFSET 0.000000 16.040596 0.000000
				}
			}
		}
	}
	JOINT BoyFacialAnim_Joint
	{
		OFFSET 1.000000 -82.208099 -1.550900
		CHANNELS 3 Xrotation Yrotation Zrotation
		End Site
		{
			OFFSET 0.000000 30.012791 0.000000
		}
	}
}
MOTION
Frames: 5
Frame Time: 0.016667
31.223394 81.467354 106.752434 -1.648985 53.595535 -4.667868 -0.000000 -0.000000 -0.000000 -31.060463 6.281237 5.141513 62.220735 -4.334234 0.348804 -4.066724 -0.187130 1.997141 0.000001 0.000002 -0.000000 0.000001 0.000002 -0.000001 0.000001 -0.000004 0.000002 -7.071763 -14.545885 -3.080764 20.897561 8.805962 2.176886 -14.536741 -5.964117 11.809488 -0.000000 -0.000003 -0.000000 -0.000000 -0.000003 -0.000000 0.000001 -0.000001 -0.000000 16.010614 2.412445 3.686676 -3.684140 1.387078 -0.261158 -3.636692 1.404608 -0.434273 3.978648 8.909093 1.412164 -4.816354 11.284286 -8.444828 0.000001 0.000000 0.000000 0.000001 0.000000 0.000000 0.000001 0.000000 0.000000 2.461148 2.791465 -2.817295 -4.430191 -6.423077 -74.072124 11.658000 -10.090357 -8.748622 0.204559 -3.173699 15.257246 -3.462073 10.551436 10.084593 1.108747 2.599561 0.623682 -0.000005 -0.000003 0.000004 5.795986 13.243527 -26.555685 -0.037815 0.054079 -18.814851 0.000001 -0.000000 -0.000000 3.120836 10.652542 -27.726688 -0.009426 0.000325 -21.328939 0.000000 -0.000003 0.000008 2.141860 7.537852 -35.195992 0.002212 0.000339 -24.763481 0.000000 0.000003 -0.000002 -0.225330 4.887049 -42.434913 -0.014565 -0.006555 -29.303062 0.000002 -0.000000 -0.000004 -0.000002 -0.000000 0.000000 3.433707 -2.334357 1.821015 5.613394 27.810930 70.870022 5.890643 23.969613 -3.620858 -27.163674 1.699070 -11.477416 1.837961 -12.059150 -3.615081 4.817125 -11.762440 -2.437831 0.000002 0.000001 -0.000003 1.355236 -0.569126 14.416632 -0.040488 -0.051470 15.870310 -0.000001 0.000002 0.000002 1.829886 -5.748683 21.064645 0.006299 -0.006823 25.114220 0.000000 0.000001 0.000000 3.012225 -9.882996 23.730427 0.000986 -0.012818 26.535025 -0.000001 -0.000001 0.000002 2.891082 -9.979903 22.981725 -0.007478 0.004940 23.193097 -0.000000 -0.000002 0.000003 -0.000000 -0.000001 0.000000 0.000000 0.000002 -0.000000 0.000000 0.000002 -0.000000 0.000000 0.000002 -0.000000 0.000000 0.000002 -0.000000 0.000000 0.000002 -0.000000 0.000000 0.000000 -0.000000 0.000000 0.000002 -0.000000 0.000000 0.000002 -0.000000 0.000000 0.000000 -0.000000 0.000001 0.000000 -0.000000 0.000001 0.000000 -0.000000 -0.000000 -0.000000 -0.000000 
32.101463 81.518860 107.833649 -1.229709 54.907443 -4.820619 -0.000000 -0.000002 0.000000 -31.592839 6.653395 4.436011 58.391458 -5.514057 0.285427 -6.209268 -0.107710 0.945669 -0.000000 0.000004 -0.000000 -0.000000 0.000004 -0.000000 -0.000000 0.000001 0.000000 -5.175716 -14.613972 -2.581433 19.752313 8.095931 2.026629 -15.412791 -6.608300 11.845515 -0.000001 -0.000001 0.000001 -0.000001 -0.000001 0.000001 -0.000000 0.000001 -0.000001 15.584009 2.532383 3.543307 -3.556716 1.562659 -0.304900 -3.502456 1.567780 -0.494261 4.137593 8.605697 1.093713 -5.069616 10.734645 -7.755144 0.000001 -0.000000 -0.000000 0.000001 -0.000000 -0.000000 0.000001 -0.000000 -0.000000 2.455214 3.181044 -2.614176 -3.846357 -5.821754 -73.977178 11.466584 -10.138466 -8.743952 0.170871 -3.002646 15.181376 -3.616498 10.715097 10.203030 1.247356 2.929876 0.699430 0.000000 -0.000001 0.000002 5.566772 12.302591 -26.633718 -0.037552 0.054358 -19.097303 0.000002 0.000001 -0.000002 2.982842 9.878339 -27.904980 -0.009390 0.000505 -21.627540 0.000001 0.000001 0.000002 1.958712 6.858365 -35.293391 0.002111 0.000369 -25.030678 -0.000002 0.000003 0.000000 -0.413606 4.308527 -42.419662 -0.014018 -0.005672 -29.491200 -0.000002 0.000000 -0.000002 0.000001 0.000000 0.000000 3.440131 -2.316832 1.935653 5.329063 28.066928 70.518787 5.834776 24.608968 -3.649151 -26.795648 1.968086 -11.383170 1.757827 -12.354835 -3.646758 4.807850 -11.738550 -2.433742 -0.000001 0.000002 -0.000000 1.369150 -0.600453 14.783234 -0.040205 -0.051826 16.232178 -0.000001 0.000003 0.000002 1.860957 -5.667191 21.400916 0.006835 -0.007449 25.249464 -0.000002 0.000001 -0.000002 3.072197 -9.755782 24.041665 0.001002 -0.013323 26.614541 -0.000002 -0.000001 0.000002 2.930502 -9.807188 23.423697 -0.007222 0.004907 23.323472 0.000001 0.000000 -0.000001 0.000000 -0.000000 -0.000000 0.000000 0.000001 -0.000000 0.000000 0.000001 -0.000000 0.000000 0.000001 -0.000000 0.000000 0.000001 -0.000000 0.000000 0.000001 -0.000000 -0.000001 -0.000000 -0.000000 0.000000 0.000001 -0.000000 0.000000 0.000001 -0.000000 -0.000001 -0.000000 -0.000000 0.000001 -0.000002 0.000000 0.000001 -0.000002 0.000000 -0.000000 -0.000002 0.000000 
32.993347 81.531639 108.881126 -0.769312 56.213710 -5.063373 -0.000000 -0.000001 -0.000000 -31.818638 7.830982 3.744214 53.622610 -2.857534 0.489340 -8.584952 -0.108653 0.744861 -0.000001 0.000001 -0.000001 -0.000001 0.000001 -0.000001 -0.000000 0.000000 0.000001 -3.236339 -14.690883 -1.998071 18.483901 7.327967 1.882430 -16.198948 -7.184210 11.896543 -0.000000 0.000002 -0.000000 -0.000000 0.000002 -0.000000 0.000000 0.000000 -0.000001 15.171944 2.635599 3.437213 -3.465060 1.712437 -0.346475 -3.404597 1.707962 -0.548735 4.477479 8.338525 0.840913 -5.300798 10.249705 -7.117910 0.000000 0.000000 -0.000000 0.000000 0.000000 -0.000000 0.000000 0.000000 -0.000000 2.446123 3.622463 -2.397369 -3.250029 -5.213086 -73.899669 11.204942 -10.110020 -8.796639 0.141481 -2.832425 15.207773 -3.769160 10.874395 10.318544 1.388819 3.268422 0.776233 -0.000002 -0.000000 -0.000000 5.318959 11.327601 -26.698998 -0.037276 0.054597 -19.379166 -0.000005 -0.000001 -0.000002 2.831621 9.072932 -28.081568 -0.009431 0.001021 -21.921835 -0.000001 -0.000000 0.000000 1.763452 6.158322 -35.378829 0.002021 0.000241 -25.299188 0.000003 0.000002 -0.000000 -0.606401 3.712616 -42.389237 -0.013607 -0.004843 -29.681577 -0.000001 0.000002 -0.000002 0.000001 0.000000 0.000000 3.445312 -2.245022 2.039394 5.025190 28.027948 70.334092 5.908760 25.328927 -3.786616 -26.279366 1.741177 -11.397943 1.676018 -12.654228 -3.680037 4.798549 -11.714297 -2.429604 -0.000001 0.000001 -0.000003 1.383715 -0.632036 15.154752 -0.039870 -0.052190 16.599007 -0.000001 0.000000 0.000002 1.891568 -5.584392 21.741732 0.007308 -0.008036 25.386517 -0.000001 -0.000001 -0.000000 3.131564 -9.626483 24.356854 0.001018 -0.013942 26.695019 -0.000002 -0.000001 0.000000 2.967928 -9.632160 23.871346 -0.006951 0.004636 23.455618 -0.000000 0.000001 0.000000 0.000001 0.000001 -0.000001 0.000001 -0.000001 0.000000 0.000001 -0.000001 0.000000 0.000001 -0.000001 0.000000 0.000001 -0.000001 0.000000 0.000001 -0.000001 0.000000 0.000001 -0.000001 0.000000 0.000001 -0.000001 0.000000 0.000001 -0.000001 0.000000 0.000001 -0.000001 0.000000 0.000000 0.000000 -0.000000 0.000000 0.000000 -0.000000 -0.000000 -0.000001 -0.000000 
33.915192 81.498688 109.889168 -0.284269 57.465653 -5.412192 -0.000000 -0.000002 -0.000000 -31.873802 8.706942 3.104122 48.010718 -0.251283 0.696003 -8.546208 0.081837 -0.735802 -0.000000 -0.000002 -0.000000 -0.000000 -0.000002 -0.000000 -0.000002 -0.000003 0.000000 -1.237581 -14.767303 -1.324350 17.090906 6.539764 1.754178 -16.895940 -7.676781 11.967919 -0.000001 -0.000001 -0.000000 -0.000001 -0.000001 -0.000000 0.000001 -0.000001 -0.000000 14.812973 2.720683 3.387000 -3.432027 1.833186 -0.388952 -3.365795 1.822134 -0.600858 4.901861 8.034547 0.691851 -5.541743 9.791232 -6.636570 0.000000 -0.000000 -0.000000 0.000000 -0.000000 -0.000000 0.000000 -0.000000 -0.000000 2.437439 4.155599 -2.228554 -2.644656 -4.655210 -73.791643 10.865430 -9.974049 -8.938541 0.129073 -2.725828 15.443360 -3.919182 11.029461 10.430562 1.532687 3.613068 0.852963 0.000003 0.000003 0.000002 5.055161 10.324721 -26.752048 -0.037053 0.054815 -19.658849 -0.000000 0.000001 -0.000002 2.667989 8.241935 -28.255135 -0.009453 0.001645 -22.210667 -0.000006 -0.000002 -0.000000 1.558034 5.441718 -35.452384 0.001832 0.000021 -25.567486 0.000002 -0.000001 -0.000001 -0.802430 3.102657 -42.344325 -0.013107 -0.004344 -29.872751 -0.000000 -0.000000 0.000001 -0.000002 -0.000000 -0.000000 3.437864 -1.953022 2.231763 5.088377 27.677890 69.974673 5.898131 26.129479 -3.922931 -25.657235 1.799299 -11.571818 1.586129 -12.980146 -3.717755 4.788361 -11.687911 -2.425091 0.000002 0.000000 -0.000001 1.400151 -0.666228 15.559690 -0.039510 -0.052509 16.998766 -0.000000 0.000000 0.000002 1.923868 -5.494035 22.112869 0.007447 -0.008683 25.536025 -0.000001 -0.000002 -0.000000 3.194767 -9.485120 24.699880 0.001004 -0.014568 26.782936 -0.000001 -0.000001 0.000000 3.005675 -9.441405 24.358623 -0.006645 0.004272 23.599699 -0.000001 -0.000001 0.000000 -0.000000 -0.000001 -0.000000 0.000001 -0.000001 -0.000000 0.000001 -0.000001 -0.000000 0.000001 -0.000001 -0.000000 0.000001 -0.000001 -0.000000 0.000001 -0.000001 0.000000 -0.000000 0.000001 0.000000 0.000001 -0.000001 -0.000000 0.000001 -0.000001 0.000000 -0.000000 0.000001 0.000000 0.000001 0.000001 -0.000000 0.000001 0.000001 -0.000000 -0.000000 -0.000002 -0.000000 
34.857082 81.458191 110.864998 0.207103 58.654202 -5.817509 -0.000000 0.000002 -0.000000 -31.845248 9.881653 2.354200 42.228102 2.725493 0.938384 -7.955942 0.093029 -0.893869 -0.000000 0.000003 0.000000 -0.000000 0.000003 0.000000 -0.000000 0.000002 -0.000000 0.962493 -14.825096 -0.550061 15.292893 5.691982 1.636159 -17.355384 -8.057782 12.079367 -0.000000 0.000001 -0.000002 -0.000000 0.000001 -0.000002 -0.000000 -0.000003 -0.000000 14.505005 2.803106 3.377841 -3.429061 1.943681 -0.435356 -3.356765 1.927239 -0.656183 5.399265 7.580490 0.789826 -5.844999 9.353212 -6.568070 0.000000 0.000001 -0.000000 0.000000 0.000001 -0.000000 0.000000 0.000001 -0.000000 2.431070 4.733123 -2.123113 -2.047587 -4.146585 -73.649971 10.618952 -9.826770 -9.080645 0.115308 -2.607354 15.643536 -4.065736 11.180270 10.538888 1.677994 3.961620 0.929290 -0.000005 -0.000000 -0.000001 4.777892 9.300260 -26.793302 -0.036735 0.055081 -19.934742 -0.000003 -0.000000 -0.000002 2.493026 7.390923 -28.424452 -0.009425 0.002277 -22.492576 -0.000003 -0.000002 -0.000000 1.343998 4.712703 -35.513978 0.001701 -0.000139 -25.833603 0.000003 0.000003 0.000002 -1.000144 2.481944 -42.285322 -0.012664 -0.003859 -30.063095 -0.000002 -0.000004 0.000001 -0.000002 0.000000 -0.000000 3.421584 -1.758973 2.216965 5.211496 27.643181 69.712039 5.435071 26.903885 -3.833240 -25.199522 2.016060 -11.695358 1.488875 -13.329405 -3.760010 4.777279 -11.659621 -2.420195 0.000000 0.000001 0.000002 1.418401 -0.702752 15.993931 -0.039121 -0.052901 17.427463 0.000000 0.000001 0.000002 1.957194 -5.396887 22.510850 0.007509 -0.009344 25.696184 -0.000001 0.000002 0.000000 3.260673 -9.333152 25.067317 0.001095 -0.015167 26.877107 -0.000003 -0.000002 -0.000002 3.042776 -9.236938 24.880777 -0.006277 0.003870 23.754160 0.000001 -0.000003 -0.000000 -0.000001 -0.000000 -0.000001 0.000001 -0.000001 -0.000000 0.000001 -0.000001 -0.000000 0.000001 -0.000001 -0.000000 0.000001 -0.000001 -0.000000 0.000001 -0.000001 0.000000 0.000000 -0.000001 -0.000000 0.000001 -0.000001 -0.000000 0.000001 -0.000001 0.000000 0.000000 -0.000001 -0.000000 0.000000 0.000000 -0.000000 0.000000 0.000000 -0.000000 -0.000000 0.000002 -0.000000 
